<svg xmlns="http://www.w3.org/2000/svg" width="512" height="512" style="shape-rendering:geometricPrecision;text-rendering:geometricPrecision;image-rendering:optimizeQuality;fill-rule:evenodd;clip-rule:evenodd"><path d="M-.5-.5h512v512H-.5z" style="opacity:.996"/><path fill="#e70001" d="M79.5 214.5q10.68-1.576 7 8.5-9.39 3.618-8.5-6.5 1.076-.816 1.5-2" style="opacity:1"/><path fill="#f3f3f3" d="M216.5 247.5q-1.492 15.23-1 31h-6q.492-15.77-1-31h-13v-7h13a85 85 0 0 1 .5-13 25.6 25.6 0 0 1 5.5-6.5 76.4 76.4 0 0 1 20-1.5v7a129 129 0 0 0-16 .5l-1.5 1.5a72.4 72.4 0 0 0-.5 12h18v7z" style="opacity:1"/><path fill="#f0f0f0" d="M41.5 234.5h18v7h-18q-.25 14.508.5 29l1.5 1.5q7.984.749 16 .5v7q-9.015.249-18-.5-4.168-1.668-6.5-5.5a184 184 0 0 1-1.5-32h-13v-7h13q1.475-5.697 1-12h6q-.475 6.303 1 12" style="opacity:1"/><path fill="#a5a5a5" d="M41.5 234.5q-1.475-5.697-1-12h-6q.475 6.303-1 12v-13h8z" style="opacity:1"/><path fill="#f0f0f0" d="M346.5 234.5h18v7h-18q-.25 14.508.5 29l1.5 1.5q7.984.749 16 .5v7a163 163 0 0 1-18-.5 25.6 25.6 0 0 1-6.5-5.5 184 184 0 0 1-1.5-32h-13v-7h13q1.475-5.697 1-12h6q-.475 6.303 1 12" style="opacity:1"/><path fill="#a6a6a6" d="M346.5 234.5q-1.475-5.697-1-12h-6q.475 6.303-1 12v-13h8z" style="opacity:1"/><path fill="#ededed" d="M147.5 240.5v38h-6q.492-18.267-1-36-4.051-5.95-8.5 0a684 684 0 0 0-.5 37h-6q.25-18.507-.5-37-3.55-5.148-8-1a722 722 0 0 0-.5 38h-8v-45h7a4.93 4.93 0 0 0 .5 3q7.844-8.124 15 1 3.339-6.541 10.5-4.5 4.363 2.109 6 6.5" style="opacity:1"/><path fill="#efefef" d="M189.5 258.5h-28q-.452 3.839 1 7 3.39 11.399 15 7.5 4.072-1.312 4-5.5h8q-1.737 10.92-13 12.5-23.943.8-22-23.5-2.022-25.23 23-22.5 17.072 7.016 12 24.5" style="opacity:1"/><path fill="#ededed" d="M253.5 233.5q8.358-.765 16 2.5 4.294 2.046 6 6.5a353 353 0 0 1 1 37h-8q1.03-9.149-4-1.5-24.606 8.386-23.5-17.5 2.838-5.337 8.5-7.5 9.487-.75 19-.5 1.083-15.148-14-11.5-4.072 1.312-4 5.5h-8q1.714-9.713 11-13" style="opacity:1"/><path fill="#eee" d="M297.5 233.5q13.998-1.763 22.5 9 .745 3.465.5 7h-7q.346-4.928-4-7.5-18.468-4.795-16 14.5-3.219 20.039 16 15.5 3.787-2.824 4-7.5h7q-.657 12.526-13 15.5-15.365 2.694-21.5-11.5a132.4 132.4 0 0 1 0-23q2.99-8.737 11.5-12" style="opacity:1"/><path fill="#00e" d="M385.5 233.5q8.717-1.089 16 3.5 3.953 2.942 5.5 7.5 1 12.5 0 25-6.811 13.029-21.5 10.5-10.25-2.25-12.5-12.5a121 121 0 0 1 0-22q3.167-9.422 12.5-12" style="opacity:1"/><path fill="#f5f5f5" d="M452.5 253.5h-7q.452-3.839-1-7-1.131-3.886-5-5.5-7.538-2.24-12.5 3.5a213.3 213.3 0 0 0-1.5 35h-7v-45h7a18.5 18.5 0 0 0 .5 6q7.954-11.35 20.5-4.5 8.083 6.918 6 17.5" style="opacity:1"/><path fill="#f90000" d="M86.5 235.5v37q6.303-.475 12 1v5h-19a343 343 0 0 0-1-37q-5.193-1.473-11-1v-5z" style="opacity:1"/><path fill="#f1f1f1" d="M475.5 293.5q-4.332.765-7-2a418 418 0 0 1 5-15.5 1003 1003 0 0 0-16-40.5q4.308-1.924 8.5 0a872 872 0 0 0 12 31l11-31q4.192-1.924 8.5 0a1048 1048 0 0 0-22 58" style="opacity:1"/><path fill="#a70000" d="M86.5 235.5h-19v5q5.807-.473 11 1h-12v-7q10.281-.486 20 1" style="opacity:1"/><path fill="#060606" d="M182.5 252.5h-20v-5q.51-4.762 5-6.5 14.859-3.362 15 11.5" style="opacity:1"/><path fill="#900001" d="M78.5 241.5a343 343 0 0 1 1 37h19v-5q1.442 2.647 1 6h-21z" style="opacity:1"/><path fill="#020008" d="M386.5 240.5a32.5 32.5 0 0 1 8 .5q3.25 2.25 5.5 5.5a100.2 100.2 0 0 1 0 20 17.8 17.8 0 0 1-4.5 5.5 30.5 30.5 0 0 1-11 0q-2.98-1.978-3.5-5.5-1-10.5 0-21a38 38 0 0 1 5.5-5" style="opacity:1"/><path fill="#8e8e8e" d="M147.5 240.5a381 381 0 0 1 1 39h-8v-37q1.492 17.733 1 36h6z" style="opacity:1"/><path fill="#b2b2b2" d="M208.5 247.5q1.492 15.23 1 31h6q-.492-15.77 1-31v32h-8z" style="opacity:1"/><path fill="#7f7f7f" d="M162.5 247.5v5h20q-10.22 1.487-21 1-.442-3.353 1-6" style="opacity:1"/><path fill="#6b6b6b" d="M444.5 246.5q1.452 3.161 1 7h7q-3.672 1.46-8 1z" style="opacity:1"/><path fill="#757575" d="M189.5 258.5q-13.227 1.49-27 1v6q-1.452-3.161-1-7z" style="opacity:1"/><path fill="#060606" d="M251.5 258.5h17q1.797 17.95-16 14.5-7.384-6.816-1-14.5" style="opacity:1"/><path fill="#727272" d="M468.5 291.5q2.668 2.765 7 2-3.672 1.46-8 1-.356-1.937 1-3" style="opacity:1"/></svg>