<svg xmlns="http://www.w3.org/2000/svg" style="shape-rendering:geometricPrecision;text-rendering:geometricPrecision;image-rendering:optimizeQuality;fill-rule:evenodd;clip-rule:evenodd" viewBox="357.5 242.2 3189 519.32"><path fill="#fe0000" d="M763.5 242.5q21.484-2.38 35.5 14 15.657 33.705-17.5 49.5-23.214 6.02-38.5-12.5-15.67-36.282 20.5-51" style="opacity:.968"/><path fill="#fefffe" d="M1682.5 280.5h95v45q-46.5-.25-93 .5c-13.51 1.181-21.68 8.348-24.5 21.5-.5 22.664-.67 45.331-.5 68h118v44h-118v207h-49v-207h-85v-44h85c-.17-25.002 0-50.002.5-75 5.11-28.112 21.28-46.612 48.5-55.5 7.72-1.95 15.39-3.45 23-4.5" style="opacity:.983"/><path fill="#fefffe" d="M440.5 293.5h49v82h119v45h-119q-.25 86.001.5 172 2.619 26.118 28.5 29.5 43.497.75 87 .5v44q-53.053.69-106-1.5-54.047-13.048-58.5-68.5-.75-87.998-.5-176h-83v-45h83zm2044 0h49v82h119v45h-119c-.17 57.334 0 114.668.5 172q2.625 26.118 28.5 29.5 43.5.75 87 .5v44c-35.37.46-70.7-.04-106-1.5q-54.045-13.048-58.5-68.5c-.5-58.666-.67-117.332-.5-176h-83v-45h83z" style="opacity:.978"/><path fill="#fefffe" d="M1024.5 370.5c30.25-2.465 50.42 10.535 60.5 39 4.95-21.281 18.11-34.114 39.5-38.5 35.25-3.461 58.09 11.706 68.5 45.5a80 80 0 0 1 3 15c.5 78.333.67 156.666.5 235h-45q.705-115.53-1.5-231c-3.86-20.188-16.03-29.021-36.5-26.5q-19.17 5.672-22.5 25.5a9248 9248 0 0 0-1.5 232h-40c.17-75.001 0-150.001-.5-225q-3.375-37.902-40.5-31.5-16.457 7.475-19.5 25.5-.75 115.499-.5 231h-46v-291h43q-.25 16.008.5 32 7.81-30.561 38.5-37" style="opacity:.982"/><path fill="#fefffe" d="M1347.5 370.5c22.29-1.727 43.96 1.106 65 8.5q59.805 27.372 64.5 93.5c.5 20.664.67 41.331.5 62h-182q-.27 20.038 1.5 40c7.35 36.109 29.52 54.442 66.5 55q32.745 1.175 55.5-22a66.8 66.8 0 0 0 7.5-15.5c16.34-.833 32.68-.666 49 .5-5.7 33.535-24.36 56.701-56 69.5q-45.57 16.839-93 6c-39.05-11.714-63.88-37.214-74.5-76.5a165.4 165.4 0 0 1-4-35c-.85-29.35-.52-58.683 1-88 8.14-57.636 40.97-90.303 98.5-98m12 40c42.31.714 65.48 22.047 69.5 64 .5 6.992.67 13.992.5 21h-134c-.62-16.408 1.55-32.408 6.5-48 11.61-24.057 30.78-36.39 57.5-37" style="opacity:.972"/><path fill="#fefffe" d="M1933.5 370.5c28.58-2.646 55.92 1.854 82 13.5 30.6 18.679 45.43 46.179 44.5 82.5.5 66.666.67 133.333.5 200h-49c.17-16.003 0-32.003-.5-48-6.66 24.994-22.49 41.161-47.5 48.5q-45.9 12.673-90-5c-31.83-17.702-47.5-44.868-47-81.5q1.335-67.408 66-86.5a127 127 0 0 1 18-3c33.33-.5 66.67-.667 100-.5q10.665-85.59-75-76.5c-15.35 1.096-28.52 6.929-39.5 17.5q-5.82 8.131-7.5 18a601 601 0 0 1-49 1q6.975-52.748 57-71.5c12.16-4.195 24.5-7.029 37-8.5m-8 158h85c.17 17.003 0 34.003-.5 51-4.07 21.413-16.24 36.246-36.5 44.5q-31.05 10.98-63 3c-26.7-10.415-37.87-29.915-33.5-58.5 6.59-25.035 22.76-38.369 48.5-40" style="opacity:.973"/><path fill="#fefffe" d="M2231.5 370.5q35.61-2.851 69 9.5 59.28 27.069 60 92.5-24 .25-48-.5c-2.7-32.422-20.03-51.422-52-57q-33.03-5.199-60 14c-11.97 10.436-18.8 23.603-20.5 39.5q-1.005 52.5 0 105c7.21 36.531 29.55 54.865 67 55q33.18 1.296 54-24 10.23-15.45 10.5-34h49c-1.59 51.085-26.93 83.585-76 97.5q-47.43 10.838-93-6c-36.43-16.44-56.59-44.607-60.5-84.5a3177 3177 0 0 1 0-113c4.89-42.21 27.05-71.043 66.5-86.5 11.23-3.61 22.56-6.11 34-7.5" style="opacity:.974"/><path fill="#fefffe" d="M3136.5 370.5c64.83-4.364 100.67 25.636 107.5 90 .5 13.329.67 26.663.5 40h-49c.17-12.005 0-24.005-.5-36q-3.555-43.55-46.5-50.5-69.435-8.524-76.5 60.5c-.5 63.999-.67 127.999-.5 192h-49v-291h49c-.17 17.003 0 34.003.5 51q12.54-50.788 64.5-56" style="opacity:.976"/><path fill="#00f" d="M2814.5 371.5c25.31-2.097 49.64 1.736 73 11.5q50.43 27.063 55.5 84.5c1.55 31.315 1.88 62.649 1 94q-3.555 92.54-94.5 108.5-48.39 7.088-90-18-39.09-29.41-43.5-78.5a907 907 0 0 1 0-104c7.44-58.271 40.27-90.938 98.5-98m3 44q29.1-3.532 54 11.5c15.47 13.121 23.31 29.955 23.5 50.5q1.005 44 0 88c-1.84 36.168-20.67 56.668-56.5 61.5q-33.675 4.033-58.5-18.5-12.735-15.182-15-35a1116 1116 0 0 1-1-90c-.96-37.841 16.87-60.507 53.5-68" style="opacity:.976"/><path fill="#fefffe" d="M3285.5 375.5q26.37-.488 52.5 1a7418 7418 0 0 1 81 216 510 510 0 0 1 13-42c20.67-58 41.33-116 62-174a347.5 347.5 0 0 1 52.5 0 265489 265489 0 0 0-145 384.5q-25.515 1.25-51-.5a7580 7580 0 0 0 42-112.5 31510 31510 0 0 1-107-272.5" style="opacity:.974"/><path fill="#fe0000" d="M667.5 377.5h128v248h80v41h-129v-247h-80a453 453 0 0 1 1-42" style="opacity:.982"/></svg>